<svg width="42" height="42" viewBox="0 0 42 42" fill="none" xmlns="http://www.w3.org/2000/svg">
<path d="M39.4119 21.1314C39.4119 19.6401 39.2884 18.5519 39.0212 17.4233H21.6445V24.1543H31.8442C31.6387 25.8271 30.5282 28.3462 28.0605 30.0389L28.0259 30.2643L33.5201 34.4354L33.9007 34.4726C37.3966 31.3086 39.4119 26.6533 39.4119 21.1314Z" fill="#4285F4"/>
<path d="M21.6429 38.8662C26.6399 38.8662 30.8349 37.2538 33.8991 34.4728L28.0588 30.039C26.496 31.1072 24.3984 31.8528 21.6429 31.8528C16.7487 31.8528 12.5948 28.6889 11.114 24.3157L10.897 24.3337L5.18409 28.6667L5.10938 28.8702C8.15282 34.7951 14.4043 38.8662 21.6429 38.8662Z" fill="#34A853"/>
<path d="M11.1155 24.3158C10.7248 23.1873 10.4987 21.978 10.4987 20.7286C10.4987 19.479 10.7248 18.2699 11.095 17.1414L11.0846 16.901L5.30008 12.4985L5.11083 12.5868C3.85647 15.0454 3.13672 17.8064 3.13672 20.7286C3.13672 23.6507 3.85647 26.4116 5.11083 28.8703L11.1155 24.3158Z" fill="#FBBC05"/>
<path d="M21.643 9.60421C25.1183 9.60421 27.4626 11.0754 28.7993 12.3048L34.0226 7.30683C30.8147 4.38468 26.64 2.59106 21.643 2.59106C14.4044 2.59106 8.15284 6.66191 5.10938 12.5868L11.0935 17.1414C12.5948 12.7682 16.7488 9.60421 21.643 9.60421Z" fill="#EB4335"/>
</svg>
