<svg width="48" height="48" viewBox="0 0 48 48" fill="none" xmlns="http://www.w3.org/2000/svg">
<rect width="48" height="48" rx="24" fill="#E1E9FE"/>
<path d="M21 31V25C21 24.7348 20.8946 24.4804 20.7071 24.2929C20.5196 24.1054 20.2652 24 20 24H16C15.7348 24 15.4804 24.1054 15.2929 24.2929C15.1054 24.4804 15 24.7348 15 25V31C15 31.2652 15.1054 31.5196 15.2929 31.7071C15.4804 31.8946 15.7348 32 16 32M21 31C21 31.2652 20.8946 31.5196 20.7071 31.7071C20.5196 31.8946 20.2652 32 20 32H16M21 31C21 31.2652 21.1054 31.5196 21.2929 31.7071C21.4804 31.8946 21.7348 32 22 32H26C26.2652 32 26.5196 31.8946 26.7071 31.7071C26.8946 31.5196 27 31.2652 27 31M21 31V21C21 20.7348 21.1054 20.4804 21.2929 20.2929C21.4804 20.1054 21.7348 20 22 20H26C26.2652 20 26.5196 20.1054 26.7071 20.2929C26.8946 20.4804 27 20.7348 27 21V31M16 32H30M27 31C27 31.2652 27.1054 31.5196 27.2929 31.7071C27.4804 31.8946 27.7348 32 28 32H32C32.2652 32 32.5196 31.8946 32.7071 31.7071C32.8946 31.5196 33 31.2652 33 31V17C33 16.7348 32.8946 16.4804 32.7071 16.2929C32.5196 16.1054 32.2652 16 32 16H28C27.7348 16 27.4804 16.1054 27.2929 16.2929C27.1054 16.4804 27 16.7348 27 17V31Z" stroke="#443EDE" stroke-width="2" stroke-linecap="round" stroke-linejoin="round"/>
</svg>
